<?xml version="1.0" encoding="utf-8"?>
<!-- Generator: Adobe Illustrator 24.0.2, SVG Export Plug-In . SVG Version: 6.00 Build 0)  -->
<svg version="1.1" id="Layer_1" xmlns="http://www.w3.org/2000/svg" xmlns:xlink="http://www.w3.org/1999/xlink" x="0px" y="0px"
	 viewBox="0 0 48 48" style="enable-background:new 0 0 48 48;" xml:space="preserve">
<style type="text/css">
	.st0{fill:#FFFFFF;}
</style>
<title>donate-color</title>
<path class="st0" d="M42.6,32.1l0.4-15.4c0-0.2-0.1-0.4-0.2-0.6l-7.9-7.9c-0.2-0.1-0.4-0.2-0.6-0.2H5.8c-0.4,0-0.8,0.3-0.8,0.8
	c0,0,0,0,0,0c0,0.4,0.4,0.8,0.8,0.8l0,0h3.9v15.8H5.8C5.4,25.4,5,25.7,5,26.1s0.3,0.8,0.7,0.9c0.1,0,0.1,0,0.2,0h4.7
	c0.4,0,0.8-0.4,0.8-0.8l0,0l0,0V9.6h22.6l7.4,7.4L41,30.3c-1.2-1.1-2.8-1.7-4.4-1.7v-7.1c0-0.3-0.2-0.6-0.5-0.7l-4.7-1.9
	c-1.3-0.9-3.1-0.6-4.1,0.5c-1.2,1.1-1.2,3-0.1,4.2l0.1,0.1l6.3,6.3c0,0,3.3,3.4,1.6,5.2c-1.8,1.8-5.2-1.6-5.2-1.6l-6.3-6.3
	c-0.1-0.1-0.2-0.1-0.3-0.2l-7.9-3.2c-0.4-0.1-0.9,0.1-1,0.6c-0.1,0.4,0.1,0.7,0.4,0.9l7.7,3.1l6.2,6.2c0.4,0.4,0.9,0.8,1.4,1.2
	c0.4,3.5,3.4,6,6.9,5.6c3.5-0.4,6-3.4,5.6-6.9c0-0.2-0.1-0.4-0.1-0.7c-0.1-0.5-0.2-1-0.4-1.5C42.5,32.4,42.5,32.3,42.6,32.1z
	 M28.5,22.5c-0.6-0.5-0.6-1.4-0.1-1.9c0,0,0.1-0.1,0.1-0.1c0.3-0.4,0.8-0.6,1.3-0.6c0.3,0,0.6,0.1,0.9,0.3l0.2,0.1l4.3,1.8v6.8
	l-0.2,0.1l0,0L28.5,22.5z M36.6,39.6c-1.8,0-3.5-1.1-4.3-2.7c0.5,0.2,1.1,0.3,1.7,0.3c0.9,0,1.8-0.4,2.4-1c1.8-1.8,0.9-4.2-0.4-6
	c2.6-0.3,5,1.5,5.3,4.1s-1.5,5-4.1,5.3C37.1,39.6,36.8,39.6,36.6,39.6z"/>
<path class="st0" d="M5.8,23.8c0.4,0,0.8-0.3,0.8-0.8c0,0,0,0,0,0l0,0v-1.6c0.1-0.4-0.3-0.8-0.7-0.9c-0.4-0.1-0.8,0.3-0.9,0.7
	c0,0.1,0,0.1,0,0.2v1.6C5.1,23.5,5.4,23.8,5.8,23.8L5.8,23.8L5.8,23.8z"/>
</svg>
